<svg width="949" height="172" viewBox="0 0 949 172" fill="none" xmlns="http://www.w3.org/2000/svg">
<path d="M14.2 2.19999C15.9333 1.26666 17.8 0.799997 19.8 0.799997C22.6 0.799997 25.2 1.59999 27.6 3.19999C28.5333 3.86666 29.4 4.53332 30.2 5.19999C31 5.86665 31.7333 6.46665 32.4 6.99999C33.2 7.53332 34.2667 8.06666 35.6 8.59999C36.9333 9.13333 38.0667 9.66666 39 10.2C43 12.3333 48.8667 15.6667 56.6 20.2L74.4 30.4C84.6667 36.2667 93.6667 41.3333 101.4 45.6L114.2 52.4C121.8 56.2667 128.2 59.7333 133.4 62.8C138.733 65.8667 143.667 69.3333 148.2 73.2C151.533 76.2667 154.133 79.2667 156 82.2C157.867 85.1333 158.8 88.3333 158.8 91.8L158.6 94C157.267 101.733 153.2 109.133 146.4 116.2C141.2 121.8 135.067 126.6 128 130.6C121.067 134.6 113.067 138.4 104 142C88.5333 147.867 70.8 153.133 50.8 157.8C48.6667 158.333 47.1333 158.667 46.2 158.8L38 160.8L26.4 163C22.8 163.667 18.4 164.333 13.2 165C12.6667 165.133 11.6667 165.4 10.2 165.8C8.86667 166.067 7.66667 166.2 6.6 166.2C6.06667 166.2 5.26667 166.067 4.2 165.8C1.4 165.267 -5.66244e-07 163.6 -5.66244e-07 160.8C-5.66244e-07 158.933 0.666666 156.8 2 154.4C3.2 151.867 4.46667 149.867 5.8 148.4C9.8 143.733 15.6667 140.533 23.4 138.8C25 138.4 25.9333 138 26.2 137.6C26.6 137.067 26.8667 135.933 27 134.2C27 131.8 27.1333 128.2 27.4 123.4C28.4667 110.733 29.1333 101.067 29.4 94.4C29.9333 88 30.2667 83.2 30.4 80C30.5333 79.3333 30.6667 78.4667 30.8 77.4C30.9333 76.2 31 74.8 31 73.2C31 71.4667 30.7333 69.8667 30.2 68.4C27.4 61.6 22.9333 53.2 16.8 43.2C16.8 43.3333 16.8667 43.5333 17 43.8C17.2667 43.9333 17.4667 44.2667 17.6 44.8C15.8667 41.7333 13 37.2667 9 31.4C8.46667 30.7333 7.86667 29.8667 7.2 28.8C6.53333 27.7333 5.93333 26.8667 5.4 26.2C5 25.8 4.46667 25.2667 3.8 24.6C3.13333 23.8 2.6 23.1333 2.2 22.6C1.53333 21.2667 1.2 20.0667 1.2 19C1.2 16.0667 2.66667 13 5.6 9.79999C8.4 6.59999 11.2667 4.06666 14.2 2.19999ZM60.8 131C72.9333 128.333 86.0667 124.8 100.2 120.4C107.8 118 114 115.8 118.8 113.8C123.6 111.8 128.133 109.2 132.4 106C128.533 101.333 124.133 97.3333 119.2 94C114.4 90.5333 107.533 86.1333 98.6 80.8L83.6 71.8L59.4 56.8C64.3333 70.8 66.8 83.9333 66.8 96.2C66.8 105.133 65.5333 114 63 122.8L60.8 131ZM198.322 102.2L196.722 106.2L210.722 118L209.322 112.2C208.389 108.467 206.522 100.533 203.722 88.4L198.322 102.2ZM221.122 43.8C222.989 55.4 225.322 67.2 228.122 79.2C231.055 91.0667 234.589 104.733 238.722 120.2C242.589 134.867 245.122 144.6 246.322 149.4C246.455 149.8 246.522 150.4 246.522 151.2C246.522 154.4 244.722 157.2 241.122 159.6C237.522 161.867 233.789 163 229.922 163C226.722 163 224.255 162.133 222.522 160.4C218.655 156.267 214.589 152.333 210.322 148.6C206.055 144.867 200.455 140.267 193.522 134.8L186.922 129.4C181.322 141.4 176.989 150.267 173.922 156C172.989 158 170.522 159.867 166.522 161.6C162.655 163.2 159.055 164 155.722 164C151.989 164 150.122 162.8 150.122 160.4C150.122 159.733 150.322 158.933 150.722 158C154.722 148.133 159.455 136.8 164.922 124L169.122 113.8C165.789 110.467 164.122 108.8 164.122 108.8C163.189 107.867 162.722 106.8 162.722 105.6C162.722 103.333 164.189 101.2 167.122 99.2C170.055 97.0667 173.322 95.6667 176.922 95C183.322 79.6667 189.322 64.0667 194.922 48.2C195.455 46.3333 197.122 44.7333 199.922 43.4C202.855 41.9333 205.922 41 209.122 40.6C211.389 39.9333 213.322 39.6 214.922 39.6C218.655 39.6 220.722 41 221.122 43.8ZM322.584 75.6C320.051 73.4667 315.651 70.6667 309.384 67.2C303.251 63.6 298.518 61.8 295.184 61.8C292.518 61.8 291.184 63.1333 291.184 65.8C291.184 66.7333 291.518 68.3333 292.184 70.6C293.118 73.6667 295.184 76.6 298.384 79.4C301.584 82.0667 305.784 85.2 310.984 88.8C315.251 91.7333 317.984 93.7333 319.184 94.8C325.051 99.8667 329.718 104.133 333.184 107.6C336.651 110.933 339.784 114.933 342.584 119.6C345.518 124.133 346.984 128.8 346.984 133.6C346.984 136.8 346.184 140.133 344.584 143.6C341.518 149.867 336.451 154.667 329.384 158C322.451 161.333 315.051 163 307.184 163C304.518 163 301.851 162.8 299.184 162.4C281.051 159.333 264.318 147.267 248.984 126.2C248.184 125 247.784 123.8 247.784 122.6C247.784 119.667 249.718 117 253.584 114.6C257.584 112.067 261.518 110.8 265.384 110.8C268.318 110.8 270.451 111.667 271.784 113.4C280.051 124.6 288.184 132.8 296.184 138C303.518 142.8 309.718 145.2 314.784 145.2C318.918 145.2 320.984 143.4 320.984 139.8C320.984 137.267 319.984 134.133 317.984 130.4C315.984 126.8 313.384 123.4 310.184 120.2C306.984 117 302.918 113.333 297.984 109.2L292.584 104.6C292.051 104.067 289.584 102.133 285.184 98.8C281.584 96.1333 278.518 93.6667 275.984 91.4C273.451 89.1333 271.318 86.6667 269.584 84C267.318 80.4 266.184 76.6667 266.184 72.8C266.184 66.8 268.718 61.3333 273.784 56.4C278.984 51.3333 284.918 47.8667 291.584 46C295.851 44.8 299.918 44.2 303.784 44.2C310.984 44.2 317.918 45.8667 324.584 49.2C331.384 52.5333 338.251 57.1333 345.184 63C346.384 63.9333 346.984 65.0667 346.984 66.4C346.984 68.9333 344.918 71.4 340.784 73.8C336.651 76.2 332.584 77.4 328.584 77.4C325.918 77.4 323.918 76.8 322.584 75.6ZM398.058 55.2C398.058 52.4 399.791 50 403.258 48C406.724 46 410.324 45 414.058 45C416.324 45 418.124 45.4667 419.458 46.4C420.791 47.2 421.391 48.5333 421.258 50.4C420.991 61.8667 420.724 79.2 420.458 102.4L419.458 154.6C419.324 157.533 417.458 160.067 413.858 162.2C410.391 164.333 406.791 165.4 403.058 165.4C400.658 165.4 398.724 164.933 397.258 164C395.924 162.933 395.258 161.4 395.258 159.4L396.058 126.6C395.524 126.733 394.724 126.8 393.658 126.8L389.658 126.6C388.724 126.467 387.324 126.4 385.458 126.4C384.524 126.4 383.391 126.533 382.058 126.8C381.391 140.133 380.458 151.467 379.258 160.8C378.991 163.6 376.924 166.067 373.058 168.2C369.324 170.333 365.591 171.4 361.858 171.4C359.591 171.4 357.791 170.933 356.458 170C355.258 169.067 354.724 167.667 354.858 165.8C356.858 147.4 358.124 130.6 358.658 115.4L358.858 109.4C359.258 97.8 359.458 90.1333 359.458 86.4C359.458 74.4 358.724 67 357.258 64.2C355.124 64.3333 353.458 64 352.258 63.2C351.191 62.2667 350.658 61.1333 350.658 59.8C350.658 58.4667 351.191 57.0667 352.258 55.6C353.324 54.1333 354.658 52.9333 356.258 52C361.324 49.2 365.658 47.8 369.258 47.8C372.191 47.8 374.791 48.7333 377.058 50.6C380.524 53.5333 382.258 59.6667 382.258 69L382.058 79C382.458 85.8 382.658 92.6667 382.658 99.6L382.458 111.4C383.258 111.133 384.524 111.133 386.258 111.4C387.991 111.667 389.324 111.8 390.258 111.8C391.191 111.8 392.258 111.733 393.458 111.6C394.658 111.333 395.724 111.133 396.658 111L398.058 55.2Z" fill="#F18C16"/>
<path d="M493.531 8.39999C494.998 9.33332 495.731 11.6 495.731 15.2C495.731 18.5333 495.198 22.7333 494.131 27.8C493.598 31 493.331 32.8 493.331 33.2C492.931 43.7333 492.265 53.0667 491.331 61.2C488.798 85.4667 485.865 105.067 482.531 120C480.798 127.733 479.198 134.067 477.731 139C476.398 143.8 474.265 148.733 471.331 153.8C468.398 158.867 464.731 162.467 460.331 164.6C458.598 165.4 457.065 165.8 455.731 165.8C451.998 165.8 449.531 163.133 448.331 157.8C447.131 152.333 446.531 145.467 446.531 137.2V132.4C446.531 131.6 446.531 130.667 446.531 129.6C446.665 128.533 446.665 127.467 446.531 126.4C445.465 108.533 443.398 89.0667 440.331 68C438.598 55.2 437.265 45.9333 436.331 40.2C435.531 35.1333 435.131 31.4 435.131 29C435.131 24.3333 436.398 20.2 438.931 16.6C440.398 14.4667 442.065 12.6 443.931 11C445.931 9.39999 447.865 8.59999 449.731 8.59999C451.331 8.59999 452.665 9.33332 453.731 10.8C454.665 12 455.331 13.6667 455.731 15.8C456.131 17.9333 456.465 20.8667 456.731 24.6C456.731 26.3333 456.865 28.1333 457.131 30C458.198 36.5333 459.731 44.8667 461.731 55C464.398 67.4 466.265 77.7333 467.331 86C467.598 82.8 467.865 78.1333 468.131 72C468.398 64.4 468.798 57.8 469.331 52.2C469.865 46.6 470.731 41.0667 471.931 35.6C472.331 33.2 473.398 29.7333 475.131 25.2C476.998 20.5333 479.198 16.4 481.731 12.8C484.398 9.06666 487.131 7.2 489.931 7.2C491.131 7.2 492.331 7.6 493.531 8.39999ZM589.006 141.8C591.006 142.467 592.006 143.667 592.006 145.4C592.006 147.533 590.74 149.867 588.206 152.4C585.406 155.2 581.806 156.6 577.406 156.6C575.273 156.6 573.473 156.333 572.006 155.8C564.94 153.533 558.54 152.4 552.806 152.4C542.806 152.4 532.606 155.6 522.206 162C520.473 163.2 518.34 164.2 515.806 165C513.406 165.667 511.14 166 509.006 166C507.006 166 505.406 165.667 504.206 165C503.006 164.2 502.406 163 502.406 161.4C502.406 160.467 502.54 159.667 502.806 159C506.673 148.2 509.74 138.467 512.006 129.8C514.406 121.133 516.006 112.333 516.806 103.4C518.006 91.4 518.606 82.6 518.606 77C518.606 62.2 515.74 50.8667 510.006 43C509.34 42.2 509.006 41.1333 509.006 39.8C509.006 37.1333 510.873 34.6667 514.606 32.4C518.34 30 522.006 28.8 525.606 28.8C528.006 28.8 529.74 29.3333 530.806 30.4C532.54 31.0667 533.673 32.1333 534.206 33.6C537.54 42.4 542.14 49.8667 548.006 56C553.873 62 560.806 65 568.806 65C570.273 65 572.473 64.7333 575.406 64.2C577.273 63.9333 578.473 63.8 579.006 63.8C581.273 63.8 582.94 64.3333 584.006 65.4C585.206 66.3333 585.806 67.6667 585.806 69.4C585.806 71.2667 585.006 73.1333 583.406 75C581.94 76.8667 579.94 78.2 577.406 79C571.94 80.8667 566.473 81.8 561.006 81.8C554.473 81.8 548.206 80.4667 542.206 77.8C541.94 85.2667 541.606 90.8667 541.206 94.6L539.806 107.2C545.006 106.267 550.206 105.467 555.406 104.8L558.206 104.6C563.54 104.6 566.206 106.4 566.206 110C566.206 112.4 564.873 114.533 562.206 116.4C559.54 118.267 556.806 119.467 554.006 120C549.873 120.8 544.206 121.667 537.006 122.6C535.54 129.133 533.94 135.267 532.206 141C541.006 137.8 549.94 136.2 559.006 136.2C569.006 136.2 579.006 138.067 589.006 141.8ZM675.7 48.8C672.5 73.0667 670.9 95.9333 670.9 117.4C670.9 127.8 671.3 138.333 672.1 149C672.367 149.8 672.5 150.467 672.5 151C672.5 151.4 672.367 152 672.1 152.8C672.1 152.933 672.033 153 671.9 153V153.4C671.1 155.667 669.233 157.667 666.3 159.4C663.367 161 660.233 161.933 656.9 162.2C651.567 162.733 648.367 161.333 647.3 158C642.633 145.467 635.233 128.133 625.1 106L622.7 100.4C621.633 117.067 620.967 134.867 620.7 153.8C620.7 156.6 618.833 159.133 615.1 161.4C611.367 163.533 607.567 164.6 603.7 164.6C601.3 164.6 599.367 164.133 597.9 163.2C596.433 162.267 595.767 160.733 595.9 158.6C596.7 122.333 599.3 88 603.7 55.6L603.9 54.8C603.633 51.8667 605.433 49.2 609.3 46.8C613.167 44.4 617.033 43.2 620.9 43.2C624.9 43.2 627.367 44.5333 628.3 47.2C632.567 58.8 638.9 73.7333 647.3 92C648.1 79.4667 649.5 66.7333 651.5 53.8C651.9 51.1333 654.033 48.8 657.9 46.8C661.767 44.6667 665.567 43.6 669.3 43.6C674.1 43.6 676.233 45.3333 675.7 48.8ZM706.317 128.4C720.317 117.6 731.317 106.133 739.317 94C728.651 90.8 717.917 84.3333 707.117 74.6C706.851 86.7333 706.584 104.667 706.317 128.4ZM764.117 83C765.051 83.6667 765.517 84.5333 765.517 85.6C765.517 86.5333 765.251 87.4667 764.717 88.4C757.651 102 748.317 114.067 736.717 124.6C725.117 135.133 711.051 145.667 694.517 156.2C692.917 157.133 691.117 158 689.117 158.8C687.117 159.467 685.184 159.8 683.317 159.8C681.317 159.8 679.584 159.267 678.117 158.2C676.517 157 675.717 155.533 675.717 153.8C675.717 151.533 676.984 149.533 679.517 147.8C679.784 147.667 680.051 147.467 680.317 147.2C680.584 146.933 680.984 146.667 681.517 146.4L682.317 96.8C682.584 86 682.851 69.5333 683.117 47.4C682.984 47.1333 682.917 46.6667 682.917 46C682.917 45.7333 683.051 45.0667 683.317 44V41.8C683.451 39.2667 685.184 37.1333 688.517 35.4C691.851 33.5333 695.384 32.6 699.117 32.6C701.651 32.6 703.651 33.0667 705.117 34C706.717 34.9333 707.517 36.4 707.517 38.4V40.4C723.651 62.6667 741.251 76.2667 760.317 81.2C762.317 81.8667 763.584 82.4667 764.117 83ZM799.494 102.2L797.894 106.2L811.894 118L810.494 112.2C809.56 108.467 807.694 100.533 804.894 88.4L799.494 102.2ZM822.294 43.8C824.16 55.4 826.494 67.2 829.294 79.2C832.227 91.0667 835.76 104.733 839.894 120.2C843.76 134.867 846.294 144.6 847.494 149.4C847.627 149.8 847.694 150.4 847.694 151.2C847.694 154.4 845.894 157.2 842.294 159.6C838.694 161.867 834.96 163 831.094 163C827.894 163 825.427 162.133 823.694 160.4C819.827 156.267 815.76 152.333 811.494 148.6C807.227 144.867 801.627 140.267 794.694 134.8L788.094 129.4C782.494 141.4 778.16 150.267 775.094 156C774.16 158 771.694 159.867 767.694 161.6C763.827 163.2 760.227 164 756.894 164C753.16 164 751.294 162.8 751.294 160.4C751.294 159.733 751.494 158.933 751.894 158C755.894 148.133 760.627 136.8 766.094 124L770.294 113.8C766.96 110.467 765.294 108.8 765.294 108.8C764.36 107.867 763.894 106.8 763.894 105.6C763.894 103.333 765.36 101.2 768.294 99.2C771.227 97.0667 774.494 95.6667 778.094 95C784.494 79.6667 790.494 64.0667 796.094 48.2C796.627 46.3333 798.294 44.7333 801.094 43.4C804.027 41.9333 807.094 41 810.294 40.6C812.56 39.9333 814.494 39.6 816.094 39.6C819.827 39.6 821.894 41 822.294 43.8ZM923.756 75.6C921.223 73.4667 916.823 70.6667 910.556 67.2C904.423 63.6 899.69 61.8 896.356 61.8C893.69 61.8 892.356 63.1333 892.356 65.8C892.356 66.7333 892.69 68.3333 893.356 70.6C894.29 73.6667 896.356 76.6 899.556 79.4C902.756 82.0667 906.956 85.2 912.156 88.8C916.423 91.7333 919.156 93.7333 920.356 94.8C926.223 99.8667 930.89 104.133 934.356 107.6C937.823 110.933 940.956 114.933 943.756 119.6C946.69 124.133 948.156 128.8 948.156 133.6C948.156 136.8 947.356 140.133 945.756 143.6C942.69 149.867 937.623 154.667 930.556 158C923.623 161.333 916.223 163 908.356 163C905.69 163 903.023 162.8 900.356 162.4C882.223 159.333 865.49 147.267 850.156 126.2C849.356 125 848.956 123.8 848.956 122.6C848.956 119.667 850.89 117 854.756 114.6C858.756 112.067 862.69 110.8 866.556 110.8C869.49 110.8 871.623 111.667 872.956 113.4C881.223 124.6 889.356 132.8 897.356 138C904.69 142.8 910.89 145.2 915.956 145.2C920.09 145.2 922.156 143.4 922.156 139.8C922.156 137.267 921.156 134.133 919.156 130.4C917.156 126.8 914.556 123.4 911.356 120.2C908.156 117 904.09 113.333 899.156 109.2L893.756 104.6C893.223 104.067 890.756 102.133 886.356 98.8C882.756 96.1333 879.69 93.6667 877.156 91.4C874.623 89.1333 872.49 86.6667 870.756 84C868.49 80.4 867.356 76.6667 867.356 72.8C867.356 66.8 869.89 61.3333 874.956 56.4C880.156 51.3333 886.09 47.8667 892.756 46C897.023 44.8 901.09 44.2 904.956 44.2C912.156 44.2 919.09 45.8667 925.756 49.2C932.556 52.5333 939.423 57.1333 946.356 63C947.556 63.9333 948.156 65.0667 948.156 66.4C948.156 68.9333 946.09 71.4 941.956 73.8C937.823 76.2 933.756 77.4 929.756 77.4C927.09 77.4 925.09 76.8 923.756 75.6Z" fill="#713FDB"/>
</svg>
